<svg xmlns="http://www.w3.org/2000/svg" width="96" height="91.403" viewBox="0 0 96 91.403">
  <g id="barber" transform="translate(0 -12.093)">
    <path id="Path_16" data-name="Path 16" d="M74.464,78.789v-.041l-.963-.227h0L51.155,73.249V68.722a19.3,19.3,0,0,0,7.478-11.089l2.27-.324-.2-2.837a13.413,13.413,0,0,1-1.6-.091,15.2,15.2,0,0,0,.089-1.634V49.489h.816a4.989,4.989,0,0,0,4.983-4.983V43.324a4.989,4.989,0,0,0-4.983-4.983h-.816V35.1A12.381,12.381,0,0,0,64.768,25.05a11.618,11.618,0,0,0-2.409-7.024l-2.277,1.715a8.791,8.791,0,0,1,1.835,5.309,9.559,9.559,0,0,1-4.859,8.044,18.206,18.206,0,0,1-5.428,1.7,11.281,11.281,0,0,1-9.914-2.919c-4.954-4.769-9.584-2.767-10.382-2.365A11.538,11.538,0,0,0,27,33.082V28.7a8.159,8.159,0,0,1,8.115-8.185h.272l-1.409,2.352,2.446,1.465,2.665-4.45a13.077,13.077,0,0,1,10.546-4.937A13.692,13.692,0,0,1,58.181,17.8l1.779-2.228a16.548,16.548,0,0,0-10.323-3.478A15.89,15.89,0,0,0,37.2,17.663H35.118A11.013,11.013,0,0,0,24.152,28.7v9.642h-.721a4.989,4.989,0,0,0-4.983,4.983v1.182a4.989,4.989,0,0,0,4.983,4.983h.721v3.259a15.177,15.177,0,0,0,.09,1.638,13.452,13.452,0,0,1-1.563.087l-.2,2.837,2.236.319a19.3,19.3,0,0,0,7.513,11.118v4.517l-4.548,1.059L9.884,78.52h0l-.989.233V78.8A12.775,12.775,0,0,0,0,91.006V103.5H83.381V96.967H80.53v3.678H74.464V81.824a9.936,9.936,0,0,1,6.066,9.182v3.236h2.851V91.006a12.775,12.775,0,0,0-8.917-12.217Zm-15.173-37.6h.721a2.135,2.135,0,0,1,2.132,2.132v1.182a2.135,2.135,0,0,1-2.132,2.132h-.721ZM22.221,78.538l3.794-.9c0,.054,0,.109,0,.164v7.382a3.328,3.328,0,0,0,4.38,3.155L37.406,86a3.327,3.327,0,0,0,2.842,3.214V92.1H22.221V78.538Zm19.155-5.483.3.064.3-.064a25.443,25.443,0,0,0,6.333-2.5V76.21l-2.595.867A3.33,3.33,0,0,0,42.629,75h-1.9a3.33,3.33,0,0,0-3.081,2.077l-2.571-.859V70.572A25.443,25.443,0,0,0,41.376,73.055Zm12.494,4.3a.475.475,0,0,1,.626.451v7.382a.475.475,0,0,1-.626.451L45.967,83V80ZM42.629,86.4h-1.9a.476.476,0,0,1-.475-.475v-7.6a.476.476,0,0,1,.475-.475h1.9a.476.476,0,0,1,.475.475v7.6A.476.476,0,0,1,42.629,86.4ZM37.39,80v3l-7.9,2.64a.475.475,0,0,1-.626-.451V77.807a.465.465,0,0,1,.2-.385.473.473,0,0,1,.275-.091.481.481,0,0,1,.154.026Zm5.708,9.22A3.327,3.327,0,0,0,45.951,86l7.016,2.343a3.326,3.326,0,0,0,4.38-3.155V77.807c0-.057,0-.113-.005-.169l3.818.9V92.1H43.1Zm6.748-33.21a10.034,10.034,0,0,1-3.721-.176c-.286-.068-.571-.144-.85-.238l-3.586-1.2-3.586,1.2a9.948,9.948,0,0,1-1.606.389c-.1.015-.2.028-.295.04a10,10,0,0,1-2.67-.015l-3.9-.556a19.659,19.659,0,0,0,2.737-2.212c1.495-1.373,2.575-2.366,4.584-2.366A3.993,3.993,0,0,1,39.6,51.7a3.289,3.289,0,0,0,4.177,0,3.993,3.993,0,0,1,2.645-.823c2.01,0,3.09.992,4.584,2.366a19.645,19.645,0,0,0,2.737,2.212l-3.119.445ZM23.432,46.638A2.135,2.135,0,0,1,21.3,44.506V43.324a2.135,2.135,0,0,1,2.132-2.132h.721v5.446h-.721ZM27,38.2c.91-1.652,3.239-5.232,5.422-6.056l.089-.031.1-.054c.136-.073,3.375-1.745,7.129,1.869A14.2,14.2,0,0,0,52.133,37.6a21.2,21.2,0,0,0,4.211-1.092s-.011,16.819-.031,17.108a13.062,13.062,0,0,1-3.375-2.477c-1.668-1.532-3.393-3.117-6.513-3.117A6.809,6.809,0,0,0,41.965,49.5a.439.439,0,0,1-.551,0,6.808,6.808,0,0,0-4.458-1.474c-3.12,0-4.845,1.585-6.513,3.117a12.977,12.977,0,0,1-3.408,2.492C27.014,53.338,27,38.2,27,38.2Zm.782,19.867,5.346.763a12.9,12.9,0,0,0,4.986-.272c.3-.076.6-.162.89-.26l2.682-.9,2.683.9.01,0a12.82,12.82,0,0,0,4.576.645c.808-.034,1.6-.161,2.4-.275l2.823-.4,1.375-.2a16.858,16.858,0,0,1-7.529,9.337,24.07,24.07,0,0,1-6.358,2.785,24.067,24.067,0,0,1-6.359-2.786,16.858,16.858,0,0,1-7.529-9.342ZM11.744,100.645V91.392H8.893v9.254H2.851V91.006a9.935,9.935,0,0,1,6.042-9.172V88.6h2.851V81.01l4.632-1.093,2.995-.706V94.955H64.01V79.211L71.613,81v19.641H11.744Z" transform="translate(0 0)" fill="#c4a981"/>
    <path id="Path_17" data-name="Path 17" d="M174.5,171.213h2.851v2.851H174.5Z" transform="translate(-141.336 -128.878)" fill="#c4a981"/>
    <path id="Path_18" data-name="Path 18" d="M244.32,171.213h2.851v2.851H244.32Z" transform="translate(-197.884 -128.878)" fill="#c4a981"/>
    <path id="Path_19" data-name="Path 19" d="M38.873,256.821h2.851v2.851H38.873Z" transform="translate(-31.485 -198.215)" fill="#c4a981"/>
    <path id="Path_20" data-name="Path 20" d="M457.929,31.884h2.851v2.851h-2.851Z" transform="translate(-370.895 -16.029)" fill="#c4a981"/>
    <g id="Group_46" data-name="Group 46" transform="translate(5.939 14.812)">
      <path id="Path_21" data-name="Path 21" d="M46.248,26.4H49.1v2.851H46.248Z" transform="translate(-43.397 -26.401)" fill="#c4a981"/>
      <path id="Path_22" data-name="Path 22" d="M46.248,56.4H49.1v2.851H46.248Z" transform="translate(-43.397 -50.699)" fill="#c4a981"/>
      <path id="Path_23" data-name="Path 23" d="M61.248,41.4H64.1v2.851H61.248Z" transform="translate(-55.546 -38.55)" fill="#c4a981"/>
      <path id="Path_24" data-name="Path 24" d="M31.248,41.4H34.1v2.851H31.248Z" transform="translate(-31.248 -38.55)" fill="#c4a981"/>
    </g>
    <path id="Path_25" data-name="Path 25" d="M379.729,130.155l-2.787-2.711a5.7,5.7,0,0,0-8.062-8.027l-2.068-9.186,1.246.281a5.224,5.224,0,0,0,6.247-3.951l2.6-11.567a8.575,8.575,0,0,0-6.432-10.238l-1.42-.426-4.038,17.938-3.7-16.446-.337-1.491-1.419.426a8.575,8.575,0,0,0-6.432,10.238l2.6,11.567a5.224,5.224,0,0,0,6.247,3.951l1.246-.281-2.068,9.186a5.7,5.7,0,0,0-8.062,8.027l-2.787,2.711L352.3,132.2l3.218-3.13a5.7,5.7,0,0,0,7.555-5.163l1.949-8.657,1.949,8.657a5.7,5.7,0,0,0,7.555,5.163l3.218,3.13Zm-8.579-42.143a5.732,5.732,0,0,1,2.977,6.356l-2.6,11.566a2.379,2.379,0,0,1-2.839,1.8l-1.877-.423Zm-9.8,19.719a2.379,2.379,0,0,1-2.84-1.8l-2.6-11.567a5.732,5.732,0,0,1,2.977-6.356l4.344,19.3Zm-1.2,16.575a2.851,2.851,0,1,1-.372-2.15A2.832,2.832,0,0,1,360.155,124.306Zm13.135,2.155a2.852,2.852,0,1,1,1.783-1.258A2.833,2.833,0,0,1,373.29,126.461Z" transform="translate(-283.729 -58.508)" fill="#c4a981"/>
  </g>
</svg>
