<svg xmlns="http://www.w3.org/2000/svg" width="105.606" height="109.94" viewBox="0 0 105.606 109.94">
  <g id="hair-dye" transform="translate(-10.092 0)">
    <path id="Path_26" data-name="Path 26" d="M87.612,109.94H42.439a4.837,4.837,0,0,1-4.831-4.831v-2.165c-11.281-5.2-23.254-20.633-23.254-30.263a4.837,4.837,0,0,1,4.831-4.831h7.309a1.61,1.61,0,0,1,0,3.221H19.185a1.612,1.612,0,0,0-1.61,1.61c0,3.849,2.7,9.682,7.048,15.224,4.456,5.681,10.009,10.282,14.918,12.373H72.771a1.61,1.61,0,0,1,0,3.221H40.829v1.61a1.612,1.612,0,0,0,1.61,1.61H87.612a1.612,1.612,0,0,0,1.61-1.61V103.5H79.213a1.61,1.61,0,0,1,0-3.221h11.3c4.909-2.09,10.462-6.692,14.918-12.373,4.347-5.542,7.048-11.376,7.048-15.224a1.612,1.612,0,0,0-1.61-1.61H92.5l-4.071,4.071a1.611,1.611,0,0,1-2.278,0l-7.334-7.334a1.61,1.61,0,0,1,2.277-2.277l6.2,6.2,4.793-4.794a1.61,1.61,0,0,0,0-2.277l-8.473-8.473L66.288,73.5l8.473,8.472a1.611,1.611,0,0,0,2.277,0l1.139-1.139-6.2-6.2a1.61,1.61,0,1,1,2.277-2.277l6.2,6.2,1.184-1.185a1.61,1.61,0,0,1,2.277,2.277l-4.6,4.6a4.831,4.831,0,0,1-6.832,0l-8.666-8.666a4.82,4.82,0,0,1-4.871-.415l-5.8-4.1H52.1A4.837,4.837,0,0,0,47.27,75.9v8.9a4.853,4.853,0,0,1-1.5,3.5,4.785,4.785,0,0,1-3.566,1.329,4.87,4.87,0,0,1-4.6-4.916V71.07H32.935a1.61,1.61,0,1,1,0-3.221H48.581l-1.393-.984a4.826,4.826,0,0,1-1.938-4.951l2.072-9.741A12.57,12.57,0,0,0,43.9,40.629l-32.4-32.4A4.853,4.853,0,0,1,10.093,4.7a4.792,4.792,0,0,1,1.581-3.461,4.871,4.871,0,0,1,6.729.224L50.735,33.8a12.569,12.569,0,0,0,11.544,3.419,1.61,1.61,0,1,1,.67,3.15,15.779,15.779,0,0,1-14.491-4.291L16.126,3.743a1.675,1.675,0,0,0-2.284-.12,1.611,1.611,0,0,0-.058,2.333l32.4,32.4a15.78,15.78,0,0,1,4.291,14.491L48.4,62.585a1.609,1.609,0,0,0,.646,1.65l11.758,8.3a1.607,1.607,0,0,0,2.068-.177l19.6-19.6a1.606,1.606,0,0,0,.177-2.068l-8.3-11.758a1.608,1.608,0,0,0-1.65-.646l-3.03.644a1.61,1.61,0,0,1-.67-3.15l3.03-.644a4.825,4.825,0,0,1,4.951,1.938l8.3,11.758a4.821,4.821,0,0,1,.415,4.871l8.666,8.666a4.839,4.839,0,0,1,.956,5.472h15.554a4.837,4.837,0,0,1,4.831,4.831c0,9.63-11.974,25.061-23.254,30.263v2.165a4.836,4.836,0,0,1-4.831,4.831ZM40.829,71.071V84.711a1.676,1.676,0,0,0,1.53,1.7,1.61,1.61,0,0,0,1.69-1.608V75.9a8.01,8.01,0,0,1,1.614-4.831H40.829Z" transform="translate(0 0)" fill="#c4a981"/>
  </g>
</svg>
