<svg xmlns="http://www.w3.org/2000/svg" xmlns:xlink="http://www.w3.org/1999/xlink" width="94" height="91" viewBox="0 0 94 91">
  <defs>
    <clipPath id="clip-path">
      <rect id="Rectangle_8" data-name="Rectangle 8" width="94" height="91" transform="translate(553.579 2971.933)" fill="#fff"/>
    </clipPath>
  </defs>
  <g id="Mask_Group_1" data-name="Mask Group 1" transform="translate(-553.579 -2971.933)" clip-path="url(#clip-path)">
    <g id="scissors" transform="translate(555.144 2972)">
      <g id="Group_19" data-name="Group 19" transform="translate(0 32.174)">
        <g id="Group_18" data-name="Group 18">
          <path id="Path_4" data-name="Path 4" d="M45.457,53.693,40.664,48.9a7.944,7.944,0,0,0-13.452,4.3l-.659,3.932a32.63,32.63,0,0,1-9.158,17.777A8.11,8.11,0,0,1,5.924,63.445L24.2,45.167a1.775,1.775,0,1,0-2.51-2.51L3.415,60.935A11.659,11.659,0,0,0,19.9,77.424a36.158,36.158,0,0,0,10.149-19.7l.659-3.932a4.395,4.395,0,0,1,7.442-2.381L42.946,56.2a1.775,1.775,0,0,0,2.51-2.51Z" transform="translate(0 -42.137)" fill="#c4a981"/>
        </g>
      </g>
      <g id="Group_21" data-name="Group 21" transform="translate(26.911 26.435)">
        <g id="Group_20" data-name="Group 20">
          <path id="Path_5" data-name="Path 5" d="M38.272,35.141a1.774,1.774,0,1,0,.52,1.255A1.788,1.788,0,0,0,38.272,35.141Z" transform="translate(-35.243 -34.621)"/>
        </g>
      </g>
      <g id="Group_23" data-name="Group 23" transform="translate(31.821 0)">
        <g id="Group_22" data-name="Group 22">
          <path id="Path_6" data-name="Path 6" d="M86.415,12.625,77.169,3.379a11.532,11.532,0,0,0-16.308,0L42.193,22.047a1.775,1.775,0,0,0,2.51,2.51L63.371,5.889a7.982,7.982,0,0,1,11.288,0l9.246,9.246a1.775,1.775,0,0,0,2.51-2.51Z" transform="translate(-41.674 -0.002)" fill="#c4a981"/>
        </g>
      </g>
      <g id="Group_25" data-name="Group 25" transform="translate(5.779 53.336)">
        <g id="Group_24" data-name="Group 24">
          <path id="Path_7" data-name="Path 7" d="M17.608,71.571a5.88,5.88,0,1,0,0,8.32A5.889,5.889,0,0,0,17.608,71.571Zm-2.51,5.81a2.332,2.332,0,1,1,0-3.3A2.336,2.336,0,0,1,15.1,77.381Z" transform="translate(-7.569 -69.851)" fill="#c4a981"/>
        </g>
      </g>
      <g id="Group_27" data-name="Group 27" transform="translate(58.424 7.363)">
        <g id="Group_26" data-name="Group 26">
          <path id="Path_8" data-name="Path 8" d="M89.467,20.089l-9.925-9.925a1.775,1.775,0,0,0-2.51,2.51L86.957,22.6a1.775,1.775,0,1,0,2.51-2.51Z" transform="translate(-76.513 -9.645)" fill="#c4a981"/>
        </g>
      </g>
      <g id="Group_29" data-name="Group 29" transform="translate(53.239 12.547)">
        <g id="Group_28" data-name="Group 28">
          <path id="Path_9" data-name="Path 9" d="M82.678,26.879l-9.925-9.925a1.775,1.775,0,0,0-2.51,2.51l9.925,9.925a1.775,1.775,0,1,0,2.51-2.51Z" transform="translate(-69.723 -16.434)" fill="#c4a981"/>
        </g>
      </g>
      <g id="Group_31" data-name="Group 31" transform="translate(48.055 17.732)">
        <g id="Group_30" data-name="Group 30">
          <path id="Path_10" data-name="Path 10" d="M75.888,33.668l-9.925-9.925a1.775,1.775,0,0,0-2.51,2.51l9.925,9.925a1.775,1.775,0,1,0,2.51-2.51Z" transform="translate(-62.933 -23.223)" fill="#c4a981"/>
        </g>
      </g>
      <g id="Group_33" data-name="Group 33" transform="translate(42.871 22.916)">
        <g id="Group_32" data-name="Group 32">
          <path id="Path_11" data-name="Path 11" d="M69.1,40.458l-9.925-9.925a1.775,1.775,0,0,0-2.51,2.51l9.925,9.925a1.775,1.775,0,1,0,2.51-2.51Z" transform="translate(-56.144 -30.013)" fill="#c4a981"/>
        </g>
      </g>
      <g id="Group_35" data-name="Group 35" transform="translate(37.686 28.101)">
        <g id="Group_34" data-name="Group 34">
          <path id="Path_12" data-name="Path 12" d="M62.309,47.247l-9.925-9.925a1.775,1.775,0,1,0-2.51,2.51L59.8,49.758a1.775,1.775,0,1,0,2.51-2.51Z" transform="translate(-49.354 -36.803)" fill="#c4a981"/>
        </g>
      </g>
      <g id="Group_37" data-name="Group 37" transform="translate(25.199 38.34)">
        <g id="Group_36" data-name="Group 36">
          <path id="Path_13" data-name="Path 13" d="M88.939,67.483a10.406,10.406,0,1,0-15.648-.024H63.975a1.775,1.775,0,0,0,0,3.55H80.447a10.371,10.371,0,0,0-2.434,5.082H36.783a6.87,6.87,0,0,1,6.624-5.082H50.4a1.775,1.775,0,1,0,0-3.55H43.407A10.418,10.418,0,0,0,33,77.865a1.775,1.775,0,0,0,1.775,1.775H59.588L42.047,97.181a1.775,1.775,0,0,0,0,2.51,10.406,10.406,0,0,0,14.716,0L76.815,79.64h1.2A10.405,10.405,0,1,0,88.939,67.483Zm-34.685,29.7a6.865,6.865,0,0,1-8.279,1.092L64.608,79.64H71.8ZM80.741,67.459a6.858,6.858,0,1,1,.769,0Zm7.524,17.263a6.857,6.857,0,1,1,6.857-6.857A6.865,6.865,0,0,1,88.265,84.722Z" transform="translate(-33.001 -50.212)" fill="#c4a981"/>
        </g>
      </g>
      <g id="Group_39" data-name="Group 39" transform="translate(47.833 55.587)">
        <g id="Group_38" data-name="Group 38">
          <path id="Path_14" data-name="Path 14" d="M65.673,73.319a1.774,1.774,0,1,0,.52,1.255A1.789,1.789,0,0,0,65.673,73.319Z" transform="translate(-62.643 -72.799)"/>
        </g>
      </g>
      <g id="Group_41" data-name="Group 41" transform="translate(64.447 60.173)">
        <g id="Group_40" data-name="Group 40">
          <path id="Path_15" data-name="Path 15" d="M87.43,79.323a1.776,1.776,0,1,0,.52,1.257A1.786,1.786,0,0,0,87.43,79.323Z" transform="translate(-84.4 -78.804)"/>
        </g>
      </g>
    </g>
  </g>
</svg>
