<svg xmlns="http://www.w3.org/2000/svg" width="117.47" height="131.752" viewBox="0 0 117.47 131.752">
  <g id="nail" transform="translate(0)">
    <path id="Path_27" data-name="Path 27" d="M277.994,99.889a1.93,1.93,0,0,0-2.729,0l-1.82,1.819a1.93,1.93,0,0,0,2.73,2.73l1.819-1.819A1.93,1.93,0,0,0,277.994,99.889Zm0,0" transform="translate(-202.661 -73.765)" fill="#c4a981"/>
    <path id="Path_28" data-name="Path 28" d="M338.4,166.663l1.82-1.819a1.93,1.93,0,0,0-2.73-2.729l-1.819,1.819a1.93,1.93,0,1,0,2.729,2.729Zm0,0" transform="translate(-248.872 -119.978)" fill="#c4a981"/>
    <path id="Path_29" data-name="Path 29" d="M293.83,126.419a6.51,6.51,0,0,0,8.285,8.285,1.93,1.93,0,1,0-1.285-3.64,2.65,2.65,0,0,1-3.36-3.36,1.93,1.93,0,0,0-3.64-1.285Zm0,0" transform="translate(-217.95 -92.932)" fill="#c4a981"/>
    <path id="Path_30" data-name="Path 30" d="M114.639,14.351,103.119,2.83a9.639,9.639,0,0,0-12.677-.847C87.462,4.266,84.478,6.628,81.572,9a1.93,1.93,0,1,0,2.442,2.989c2.876-2.349,5.829-4.686,8.776-6.947a5.7,5.7,0,0,1,3.5-1.185,5.766,5.766,0,0,1,4.1,1.7L111.91,17.081a5.763,5.763,0,0,1,1.7,4.1,5.7,5.7,0,0,1-1.185,3.5,367.912,367.912,0,0,1-28.983,33.4,1.929,1.929,0,0,1-2.742.011L59.38,36.769a1.929,1.929,0,0,1,.01-2.742c6.028-5.9,12.329-11.66,18.727-17.115a1.93,1.93,0,1,0-2.5-2.937c-6.465,5.511-12.832,11.33-18.924,17.3A5.787,5.787,0,0,0,56.65,39.5l6.566,6.566L48.448,60.833a7.175,7.175,0,0,0-2.41.941c-1.049.641-2.116,1.329-3.187,2.047a16.092,16.092,0,0,0-13.909-7.546A16.1,16.1,0,0,0,12.908,69.205c-.874,4.059-1.65,8.26-2.314,12.5A28.77,28.77,0,0,0,0,104.089v25.733a1.93,1.93,0,0,0,1.93,1.93H55.968a1.93,1.93,0,0,0,1.93-1.93V104.089A28.756,28.756,0,0,0,47.975,82.27,96.546,96.546,0,0,0,55.7,71.433a7.191,7.191,0,0,0,.942-2.411L71.405,54.253l6.566,6.566A5.786,5.786,0,0,0,86.2,60.78a371.68,371.68,0,0,0,29.287-33.751,9.638,9.638,0,0,0-.848-12.677Zm-60.6,89.738v23.8H3.86v-23.8A24.911,24.911,0,0,1,9.695,88a250.72,250.72,0,0,0-1.973,25.657c0,.055,0,.111,0,.165a6.287,6.287,0,0,0,3.766,5.76,46.243,46.243,0,0,0,6.572,2.307,1.93,1.93,0,0,0,1-3.73,42.178,42.178,0,0,1-6.02-2.114,2.426,2.426,0,0,1-1.452-2.286,244.809,244.809,0,0,1,2.713-30.72c.676-4.416,1.481-8.8,2.389-13.018a12.177,12.177,0,0,1,12.259-9.882,12.278,12.278,0,0,1,10.734,5.9c-1.453,1.057-2.895,2.163-4.3,3.3a5.8,5.8,0,0,0-.458,8.6l4.614,4.614a5.762,5.762,0,0,0,4.252,1.693,245.727,245.727,0,0,1,2.534,29.575,2.426,2.426,0,0,1-1.454,2.222,39.136,39.136,0,0,1-18.572,3.333,1.93,1.93,0,1,0-.273,3.851,42.977,42.977,0,0,0,20.391-3.647,6.288,6.288,0,0,0,3.765-5.923A250.91,250.91,0,0,0,48.2,87.995a24.917,24.917,0,0,1,5.836,16.094ZM52.4,69.419a95.941,95.941,0,0,1-7.268,10.246,1.936,1.936,0,0,1-2.873.156l-4.614-4.614a1.933,1.933,0,0,1,.157-2.872c1.775-1.435,3.609-2.82,5.451-4.115l.01-.006c1.608-1.131,3.218-2.188,4.785-3.146A3.163,3.163,0,0,1,52.4,69.419Zm3.453-5.074a7.264,7.264,0,0,0-2.73-2.73l12.821-12.82,2.73,2.729Zm0,0" fill="#c4a981"/>
  </g>
</svg>
